<?xml version="1.0" encoding="UTF-8" standalone="no"?>
<!-- Created with Inkscape (http://www.inkscape.org/) -->

<svg
   width="210mm"
   height="297mm"
   viewBox="0 0 210 297"
   version="1.1"
   id="svg4001"
   xml:space="preserve"
   inkscape:version="1.2.1 (9c6d41e410, 2022-07-14)"
   sodipodi:docname="error.svg"
   inkscape:export-filename="error.svg"
   inkscape:export-xdpi="96"
   inkscape:export-ydpi="96"
   xmlns:inkscape="http://www.inkscape.org/namespaces/inkscape"
   xmlns:sodipodi="http://sodipodi.sourceforge.net/DTD/sodipodi-0.dtd"
   xmlns:xlink="http://www.w3.org/1999/xlink"
   xmlns="http://www.w3.org/2000/svg"
   xmlns:svg="http://www.w3.org/2000/svg"><sodipodi:namedview
     id="namedview4003"
     pagecolor="#ffffff"
     bordercolor="#000000"
     borderopacity="0.25"
     inkscape:showpageshadow="2"
     inkscape:pageopacity="0.0"
     inkscape:pagecheckerboard="0"
     inkscape:deskcolor="#d1d1d1"
     inkscape:document-units="mm"
     showgrid="true"
     showguides="true"
     inkscape:lockguides="true"
     inkscape:zoom="0.9927668"
     inkscape:cx="539.4016"
     inkscape:cy="492.5628"
     inkscape:window-width="1920"
     inkscape:window-height="986"
     inkscape:window-x="-11"
     inkscape:window-y="-11"
     inkscape:window-maximized="1"
     inkscape:current-layer="layer1"><inkscape:grid
       type="xygrid"
       id="grid7520" /></sodipodi:namedview><defs
     id="defs3998"><inkscape:path-effect
       effect="bspline"
       id="path-effect2010"
       is_visible="true"
       lpeversion="1"
       weight="33.333333"
       steps="2"
       helper_size="0"
       apply_no_weight="true"
       apply_with_weight="true"
       only_selected="false" /><inkscape:path-effect
       effect="bspline"
       id="path-effect1280"
       is_visible="true"
       lpeversion="1"
       weight="33.333333"
       steps="2"
       helper_size="0"
       apply_no_weight="true"
       apply_with_weight="true"
       only_selected="false" /><inkscape:path-effect
       effect="powerstroke"
       id="path-effect6402"
       is_visible="true"
       lpeversion="1"
       offset_points="1.5,0"
       not_jump="true"
       sort_points="true"
       interpolator_type="CentripetalCatmullRom"
       interpolator_beta="0.75"
       start_linecap_type="round"
       linejoin_type="spiro"
       miter_limit="4"
       scale_width="1"
       end_linecap_type="round" /><inkscape:path-effect
       effect="simplify"
       id="path-effect6400"
       is_visible="true"
       lpeversion="1"
       steps="1"
       threshold="0.0047745358"
       smooth_angles="0"
       helper_size="0"
       simplify_individual_paths="false"
       simplify_just_coalesce="false"
       step="1" /><inkscape:path-effect
       effect="powerstroke"
       id="path-effect6395"
       is_visible="true"
       lpeversion="1"
       offset_points="1.5,5.6535532"
       not_jump="true"
       sort_points="true"
       interpolator_type="CentripetalCatmullRom"
       interpolator_beta="0.75"
       start_linecap_type="round"
       linejoin_type="spiro"
       miter_limit="4"
       scale_width="1"
       end_linecap_type="round" /><inkscape:path-effect
       effect="simplify"
       id="path-effect6393"
       is_visible="true"
       lpeversion="1"
       steps="1"
       threshold="0.0047745358"
       smooth_angles="0"
       helper_size="0"
       simplify_individual_paths="false"
       simplify_just_coalesce="false"
       step="1" /><inkscape:path-effect
       effect="powerstroke"
       id="path-effect4389"
       is_visible="true"
       lpeversion="1"
       offset_points="1.4217411,5.6535532"
       not_jump="true"
       sort_points="true"
       interpolator_type="CentripetalCatmullRom"
       interpolator_beta="0.75"
       start_linecap_type="round"
       linejoin_type="spiro"
       miter_limit="4"
       scale_width="1"
       end_linecap_type="round" /><inkscape:path-effect
       effect="simplify"
       id="path-effect4387"
       is_visible="true"
       lpeversion="1"
       steps="1"
       threshold="0.0047745358"
       smooth_angles="0"
       helper_size="0"
       simplify_individual_paths="false"
       simplify_just_coalesce="false"
       step="1" /><linearGradient
       id="linearGradient3737"><stop
         style="stop-color:#000000;stop-opacity:1;"
         offset="0"
         id="stop3735" /></linearGradient><clipPath
       clipPathUnits="userSpaceOnUse"
       id="clipPath3616"><path
         id="path3618"
         style="fill:#ff0000;fill-opacity:1;fill-rule:nonzero;stroke:none"
         d="M 8.9765625,1.7011719 V 41.701172 H 25.630859 c -0.03461,-0.137607 -0.06598,-0.275428 -0.07227,-0.417969 -0.01636,-0.106532 -0.03423,-0.213434 -0.08789,-0.308594 -0.08514,-0.15884 -0.166108,-0.32049 -0.205078,-0.498047 -0.04167,-0.182348 -0.09159,-0.36354 -0.107422,-0.550781 -0.02928,-0.20034 -0.07066,-0.398082 -0.123047,-0.59375 -0.09169,-0.342421 0.06599,-0.531751 0.25,-0.523437 0.08187,0.0037 0.168984,0.04706 0.242188,0.132812 0.05531,-0.115305 0.142318,-0.184177 0.236328,-0.191406 0.154001,-0.01184 0.313738,0.128836 0.33789,0.423828 0.06021,7.25e-4 0.120286,0.02432 0.171876,0.07031 0.09993,-0.09718 0.226433,-0.174047 0.335937,-0.244141 0.06028,-0.03421 0.212421,-0.120628 0.335937,-0.134766 0.185339,-0.07555 0.377748,-0.135861 0.564454,-0.205078 0.0118,-0.0043 0.02335,-0.0094 0.03516,-0.01367 0.0035,-0.0074 0.0069,-0.01465 0.01172,-0.02148 0.006,-0.0087 0.0076,9.39e-4 0.0078,0.01563 0.247738,-0.09042 0.496205,-0.179823 0.744141,-0.269531 0.07408,-0.0268 0.141645,-0.04119 0.203125,-0.04492 0.04868,-0.003 0.09101,6.86e-4 0.130859,0.0098 0.04447,-0.08496 0.09733,-0.164998 0.154297,-0.242188 -0.197978,-0.391844 -0.558476,-0.832152 -0.326172,-0.845703 0.06185,-0.0036 0.165846,0.02403 0.326172,0.08984 0.174647,0.07169 0.350232,0.137136 0.529297,0.193359 0.02045,-0.01908 0.04018,-0.03964 0.06055,-0.05859 0.22164,-0.185112 0.444611,-0.381424 0.693359,-0.533203 -0.303085,-0.327149 -0.119044,-0.851716 0.705078,-1.082031 0.100486,-0.02809 0.201244,-0.04153 0.302735,-0.04883 -0.02064,-0.411168 0.189498,-0.690945 0.488281,-0.714844 0.08606,-0.20047 0.287397,-0.344459 0.572266,-0.355469 0.200909,-0.0078 0.440606,0.05077 0.705078,0.199219 0.192429,0.108015 0.385343,0.210406 0.582031,0.310547 0.186582,0.110067 0.386747,0.190792 0.589844,0.263672 0.217923,0.06375 0.430583,0.141766 0.642578,0.222656 0.127935,0.04834 0.266141,0.06359 0.40039,0.08594 1.36763,0.227659 1.136848,1.610371 -0.230468,1.38086 -0.21108,-0.03543 -0.423374,-0.07072 -0.625,-0.144531 -0.01743,0.318895 -0.315248,0.648542 -0.933594,0.734375 -0.05376,0.0075 -0.558103,0.07444 -0.570313,0.04883 -0.0171,-0.03588 -0.0333,-0.07266 -0.04883,-0.109375 0.125072,0.324598 -0.06098,0.773611 -0.695312,1.03125 -0.190162,0.07723 -0.383277,0.146288 -0.580078,0.201172 -0.188145,0.119648 -0.377408,0.236272 -0.556641,0.36914 -0.21317,0.185964 -0.439353,0.355225 -0.667969,0.521485 -0.29143,0.211938 -0.560889,0.2928 -0.783203,0.28125 -0.08916,0.161622 -0.182365,0.320092 -0.292969,0.46875 -0.205634,0.193523 -0.336759,0.37042 -0.710937,0.30664 -0.120802,-0.02059 -0.228063,-0.08721 -0.328125,-0.164062 -0.203398,0.326178 -0.42121,0.694448 -0.72461,0.910156 -0.0231,0.01642 -0.04778,0.03051 -0.07227,0.04492 h 9.738281 V 1.7011719 Z M 26.271484,41.642578 c 0.003,0.01303 0.0067,0.02589 0.0098,0.03906 0.0015,0.0066 0.0025,0.01304 0.0039,0.01953 h 0.04687 c -0.01966,-0.01745 -0.04002,-0.03672 -0.06055,-0.05859 z" /></clipPath><linearGradient
       xlink:href="#linearGradient3737"
       id="linearGradient3721"
       x1="23.93634"
       y1="34.535809"
       x2="34.122017"
       y2="34.535809"
       gradientUnits="userSpaceOnUse"
       gradientTransform="matrix(1.2161407,-0.12181467,0.06202239,0.88101029,-7.3891268,7.9481388)" /><linearGradient
       xlink:href="#linearGradient3737"
       id="linearGradient3739"
       x1="17.379311"
       y1="43.91777"
       x2="18.190983"
       y2="43.91777"
       gradientUnits="userSpaceOnUse"
       gradientTransform="matrix(0.78431373,0,0,0.78947369,12.231237,6.4607001)" /></defs><g
     inkscape:label="Capa 1"
     inkscape:groupmode="layer"
     id="layer1"><g
       id="g4233"
       transform="translate(0,72.637844)"><g
         style="fill:none"
         id="g4079"
         transform="matrix(3.138473,0,0,2.8783791,27.428247,68.167832)"><path
           d="m 22.981432,41.700265 c -3.7118,-0.004 -7.2705,-1.48024 -9.8951,-4.1049 -2.6247,-2.6246 -4.1008996,-6.1833 -4.1048996,-9.8951 -0.05415,-1.9532 0.2943,-3.8967 1.0234996,-5.7094 0.7293,-1.8128 1.8238,-3.4561 3.2155,-4.8276 0.8617,-0.8121 1.5504,-1.7899 2.0249,-2.8747 0.4744,-1.0848 0.7248,-2.2543 0.7361,-3.4383 V 8.7002653 c 0.0026,-0.6183 0.1961,-1.2206 0.5541,-1.7247 0.358,-0.5041 0.863,-0.8852 1.4459,-1.0913 v -0.184 c 0,-1.0609 0.4214,-2.0783 1.1716,-2.8284 0.7501,-0.7502 1.7675,-1.1716 2.8284,-1.1716 h 2 c 1.0609,0 2.0783,0.4214 2.8284,1.1716 0.7502,0.7501 1.1716,1.7675 1.1716,2.8284 v 0.184 c 0.5829,0.2061 1.0879,0.5872 1.4459,1.0913 0.358,0.5041 0.5515,1.1064 0.5541,1.7247 v 2.1499997 c 0.0113,1.184 0.2617,2.3535 0.7361,3.4383 0.4745,1.0848 1.1632,2.0626 2.0249,2.8747 1.3917,1.3715 2.4862,3.0148 3.2155,4.8276 0.7293,1.8127 1.0777,3.7562 1.0235,5.7094 -0.004,3.7118 -1.4802,7.2705 -4.1049,9.8951 -2.6246,2.62466 -6.1833,4.10093 -9.8951,4.1049 z m 1,-37.9999997 h -2 c -0.5304,0 -1.0391,0.2107 -1.4142,0.5858 -0.3751,0.3751 -0.5858,0.8838 -0.5858,1.4142 h 6 c 0,-0.5304 -0.2107,-1.0391 -0.5858,-1.4142 -0.3751,-0.3751 -0.8838,-0.5858 -1.4142,-0.5858 z m 3,4 h -8 c -0.2652,0 -0.5196,0.1054 -0.7071,0.2929 -0.1875,0.1875 -0.2929,0.4419 -0.2929,0.7071 v 1 h 10 v -1 c 0,-0.2652 -0.1053,-0.5196 -0.2929,-0.7071 -0.1875,-0.1875 -0.4419,-0.2929 -0.7071,-0.2929 z m -7,12.9999997 h -1 c -0.1978,0 -0.3911,0.0586 -0.5556,0.1685 -0.1644,0.1099 -0.2926,0.2661 -0.3683,0.4488 -0.0757,0.1827 -0.0955,0.3838 -0.0569,0.5778 0.0386,0.194 0.1338,0.3722 0.2737,0.512 0.1399,0.1399 0.318,0.2351 0.512,0.2737 0.194,0.0386 0.3951,0.0188 0.5778,-0.0569 0.1827,-0.0757 0.3389,-0.2039 0.4488,-0.3683 0.1099,-0.1645 0.1685,-0.3578 0.1685,-0.5556 z m 2,-2 h 2 v -7 h -2 z m 9.366,-0.1 c -1.9127,-1.8182 -3.097,-4.2714 -3.331,-6.9 h -2.035 v 7 h 1 c 0.5934,0 1.1734,0.1759 1.6667,0.5056 0.4934,0.3296 0.8779,0.7982 1.1049,1.3463 0.2271,0.5482 0.2865,1.1514 0.1708,1.7334 -0.1158,0.5819 -0.4015,1.1165 -0.8211,1.536 -0.4195,0.4196 -0.9541,0.7053 -1.536,0.8211 -0.582,0.1157 -1.1852,0.0563 -1.7333,-0.1708 -0.5482,-0.227 -1.0168,-0.6115 -1.3464,-1.1049 -0.3296,-0.4933 -0.5056,-1.0734 -0.5056,-1.6667 v -1 h -2 v 1 c 0,0.5933 -0.1759,1.1734 -0.5056,1.6667 -0.3296,0.4934 -0.7982,0.8779 -1.3463,1.1049 -0.5482,0.2271 -1.1514,0.2865 -1.7334,0.1708 -0.5819,-0.1158 -1.1165,-0.4015 -1.536,-0.8211 -0.4196,-0.4195 -0.7053,-0.9541 -0.821,-1.536 -0.1158,-0.582 -0.0564,-1.1852 0.1707,-1.7334 0.227,-0.5481 0.6116,-1.0167 1.1049,-1.3463 0.4933,-0.3297 1.0734,-0.5056 1.6667,-0.5056 h 1 v -7 h -2.035 c -0.234,2.6286 -1.4183,5.0818 -3.331,6.9 -1.1977,1.1863 -2.1384,2.6065 -2.7636,4.172 -0.6251,1.5655 -0.9214,3.243 -0.8704,4.928 0,3.1826 1.2643,6.2348 3.5147,8.4853 2.2505,2.2504 5.3027,3.5147 8.4853,3.5147 3.1826,0 6.2349,-1.2643 8.4853,-3.5147 2.2504,-2.2505 3.5147,-5.3027 3.5147,-8.4853 0.051,-1.685 -0.2452,-3.3625 -0.8704,-4.928 -0.6252,-1.5655 -1.5659,-2.9857 -2.7636,-4.172 z m -5.366,2.1 v 1 c 0,0.1978 0.0587,0.3911 0.1685,0.5556 0.1099,0.1644 0.2661,0.2926 0.4488,0.3683 0.1828,0.0757 0.3838,0.0955 0.5778,0.0569 0.194,-0.0386 0.3722,-0.1338 0.512,-0.2737 0.1399,-0.1398 0.2351,-0.318 0.2737,-0.512 0.0386,-0.194 0.0188,-0.3951 -0.0569,-0.5778 -0.0757,-0.1827 -0.2039,-0.3389 -0.3683,-0.4488 -0.1645,-0.1099 -0.3578,-0.1685 -0.5556,-0.1685 z"
           fill="#000000"
           id="path45"
           clip-path="url(#clipPath3616)"
           style="stroke-linejoin:round"
           transform="translate(0.76392573)" /><path
           style="fill:none;stroke:url(#linearGradient3721);stroke-width:1.2547;stroke-linejoin:round;stroke-dasharray:none"
           d="m 25.946373,41.338772 -1.982865,-4.449845 1.571412,-2.645222 -0.739576,-5.797529 4.900754,2.862871 0.14188,3.072249 5.43657,0.762096"
           id="path3715" /><ellipse
           style="fill:url(#linearGradient3739);fill-opacity:1;stroke-width:1.0324;stroke-linejoin:round;stroke-dasharray:none"
           id="path3733"
           cx="26.180372"
           cy="41.132626"
           rx="0.31830239"
           ry="0.35809019" /><ellipse
           style="fill:none;stroke-width:1.312;stroke-linejoin:round;stroke-dasharray:none"
           id="path3741"
           cx="19.687002"
           cy="43.535809"
           rx="1.0344827"
           ry="0.42175066" /></g></g><path
       style="fill:#000000;stroke-width:0;stroke-linejoin:round"
       d="m 101.95243,72.637844 -2e-5,73.061836"
       id="path4296" /><path
       style="fill:#000000;stroke-width:0;stroke-linejoin:round"
       d="m 101.95241,145.69968 c 0,0 0,0 2e-5,-73.061836 z"
       id="path4298" /><path
       style="fill:#ffd42a;stroke-width:0;stroke-linejoin:round"
       d="M 97.806472,254.64667 C 83.15304,253.22596 70.539961,243.50844 66.053961,230.18353 c -1.165733,-3.46262 -1.205796,-3.79168 -1.215998,-9.98795 -0.01209,-7.33919 0.375563,-9.31684 2.839048,-14.48379 1.995738,-4.18588 4.126105,-7.09855 7.87641,-10.76874 4.011432,-3.92574 6.209286,-6.84062 7.957328,-10.5533 1.462579,-3.10639 2.611712,-6.90306 2.611712,-8.62896 0,-0.98115 0.003,-0.98208 3.203681,-0.98208 h 3.203678 v 9.79949 9.79949 h -2.193012 c -6.219235,0 -10.399194,3.56017 -10.399194,8.85723 0,5.31873 4.655796,9.27146 10.316012,8.75821 5.239662,-0.47511 8.657293,-4.11101 8.675277,-9.22934 l 0.0083,-2.35564 h 3.015227 3.01523 l 0.008,2.35564 c 0.018,5.11833 3.43562,8.75423 8.67528,9.22934 5.69243,0.51618 10.316,-3.4092 10.316,-8.75821 0,-5.29706 -4.17996,-8.85723 -10.3992,-8.85723 h -2.19301 v -9.79949 -9.79949 h 3.20368 c 3.20063,0 3.20368,0.001 3.20368,0.98208 0,1.7259 1.14913,5.52257 2.61171,8.62896 1.74804,3.71268 3.9459,6.62756 7.95733,10.5533 5.43723,5.32107 8.6819,10.85456 10.18893,17.37626 0.7037,3.04527 0.79433,4.31217 0.63783,8.91662 -0.1586,4.6663 -0.33226,5.82358 -1.33009,8.86403 -1.28841,3.92585 -4.08751,9.12925 -4.91096,9.12925 -0.29742,0 -2.61738,-0.27693 -5.15547,-0.6154 l -4.61472,-0.6154 -0.22486,-3.97066 c -0.14173,-2.50278 -0.40551,-4.13964 -0.71353,-4.42777 -1.06025,-0.99177 -16.19888,-8.83904 -17.0519,-8.83904 -0.96029,0 -2.09351,0.88181 -2.09351,1.62905 0,0.24447 0.5035,4.05261 1.11888,8.46253 l 1.11887,8.01803 -2.43803,3.76909 c -1.34093,2.073 -2.43804,4.02276 -2.43804,4.3328 0,0.31004 0.77694,2.1107 1.72654,4.00146 2.22539,4.43102 2.35251,4.32406 -4.364867,3.67277 z"
       id="path6546" /><path
       style="fill:#ffd42a;stroke-width:0;stroke-linejoin:round"
       d="m 98.937182,184.5782 v -9.79949 h 3.015228 3.01523 v 9.79949 9.79949 h -3.01523 -3.015228 z"
       id="path6548" /><path
       style="fill:#ffd42a;stroke-width:0;stroke-linejoin:round"
       d="m 87.917543,205.48059 c -1.130356,-0.62303 -1.630543,-1.92507 -1.227439,-3.19513 0.324212,-1.0215 2.315432,-1.87731 4.36795,-1.87731 h 1.567672 l -0.184099,1.91597 c -0.283221,2.94754 -2.322182,4.37014 -4.524084,3.15647 z"
       id="path6550" /><path
       style="fill:#c8b7b7;stroke-width:0;stroke-linejoin:round"
       d="m 113.26694,205.57759 c -1.19605,-0.60518 -1.87935,-1.96571 -1.88639,-3.75605 -0.005,-1.40048 0.008,-1.41339 1.51417,-1.41339 0.83584,0 2.10186,0.24323 2.81336,0.54051 2.1556,0.90067 2.25851,3.47789 0.18177,4.55182 -1.30665,0.6757 -1.43255,0.6794 -2.62291,0.0771 z"
       id="path6552" /><path
       style="fill:#c8b7b7;stroke-width:0;stroke-linejoin:round"
       d="m 86.499366,166.71704 c 0,-1.06726 0.255682,-1.97007 0.720505,-2.54411 l 0.720505,-0.88978 h 14.012034 14.01203 l 0.72051,0.88978 c 0.46482,0.57404 0.72051,1.47685 0.72051,2.54411 v 1.65431 H 101.95241 86.499366 Z"
       id="path6623" /><path
       style="fill:#ffd42a;stroke-width:0;stroke-linejoin:round"
       d="m 92.906724,156.36617 c 0,-1.1256 1.604923,-3.20608 3.022741,-3.91841 1.893985,-0.95157 10.151905,-0.95157 12.045885,0 1.41782,0.71233 3.02274,2.79281 3.02274,3.91841 0,0.6601 -0.49202,0.69807 -9.04568,0.69807 -8.553664,0 -9.045686,-0.038 -9.045686,-0.69807 z"
       id="path6625" /><path
       style="fill:#c8b7b7;stroke-width:0;stroke-linejoin:round"
       d="m 112.90577,205.02522 c -1.08051,-0.87536 -1.64688,-3.31641 -0.93471,-4.02859 0.28677,-0.28676 0.82118,-0.46189 1.1876,-0.38918 2.28362,0.45315 2.74571,0.61488 3.27818,1.14735 0.91894,0.91894 0.74714,2.61075 -0.33729,3.32129 -1.2001,0.78634 -2.17962,0.77073 -3.19378,-0.0509 z"
       id="path6627" /><path
       style="fill:#c8b7b7;stroke-width:0;stroke-linejoin:round"
       d="m 96.016179,156.78439 c -3.061631,-0.14574 -3.324148,-0.46903 -1.949029,-2.40021 1.418254,-1.99175 2.664534,-2.36565 7.88526,-2.36565 5.22073,0 6.467,0.3739 7.88526,2.36565 1.41873,1.99242 1.19135,2.16365 -3.2326,2.43433 -3.91263,0.2394 -4.91041,0.23618 -10.588891,-0.0341 z"
       id="path6629" /><path
       style="fill:#ffcc00;stroke-width:0;stroke-linejoin:round"
       d="m 112.90577,205.02522 c -1.08051,-0.87536 -1.64688,-3.31641 -0.93471,-4.02859 0.28677,-0.28676 0.82118,-0.46189 1.1876,-0.38918 2.28362,0.45315 2.74571,0.61488 3.27818,1.14735 0.87862,0.87862 0.74855,2.64669 -0.24596,3.34327 -1.09832,0.76929 -2.27788,0.74313 -3.28511,-0.0729 z"
       id="path6631" /><path
       style="fill:#ffcc00;stroke-width:0;stroke-linejoin:round"
       d="m 112.74209,204.45986 c -1.52898,-2.42452 -1.00069,-3.90016 1.24706,-3.48327 1.72655,0.32022 2.6625,1.17438 2.6625,2.42982 0,1.32861 -0.64463,1.90148 -2.13966,1.90148 -0.87111,0 -1.3927,-0.24991 -1.7699,-0.84803 z"
       id="path6771" /><path
       style="display:inline;fill:none;fill-rule:evenodd;stroke:#000000;stroke-width:2.91627;stroke-linecap:butt;stroke-linejoin:miter;stroke-dasharray:none;stroke-opacity:1"
       d="M 102.78493,4.9910064e-6 102.78491,145.71468"
       id="path6924"
       inkscape:connector-type="polyline"
       inkscape:connector-curvature="0"
       inkscape:highlight-color="#070707"
       sodipodi:nodetypes="ccc" /><path
       style="display:inline;fill:none;fill-rule:evenodd;stroke:#000000;stroke-width:3.658;stroke-linecap:round;stroke-linejoin:round;stroke-dasharray:none;stroke-opacity:1"
       d="m 102.97421,274.69575 -2e-5,19.16448"
       id="path6924-8"
       inkscape:connector-type="polyline"
       inkscape:connector-curvature="0"
       inkscape:highlight-color="#070707"
       sodipodi:nodetypes="ccc" /><path
       style="display:inline;fill:none;fill-rule:evenodd;stroke:#000000;stroke-width:3.658;stroke-linecap:round;stroke-linejoin:round;stroke-dasharray:none;stroke-opacity:1"
       d="m 121.44376,271.58176 2.64584,18.98096"
       id="path6924-8-7"
       inkscape:connector-type="polyline"
       inkscape:connector-curvature="0"
       inkscape:highlight-color="#070707"
       sodipodi:nodetypes="ccc" /><path
       style="display:inline;fill:none;fill-rule:evenodd;stroke:#000000;stroke-width:3.658;stroke-linecap:round;stroke-linejoin:round;stroke-dasharray:none;stroke-opacity:1"
       d="m 135.99586,266.86103 7.93748,17.44344"
       id="path6924-8-7-6"
       inkscape:connector-type="polyline"
       inkscape:connector-curvature="0"
       inkscape:highlight-color="#070707"
       sodipodi:nodetypes="ccc" /><path
       style="display:inline;fill:none;fill-rule:evenodd;stroke:#000000;stroke-width:3.658;stroke-linecap:round;stroke-linejoin:round;stroke-dasharray:none;stroke-opacity:1"
       d="m 146.57914,255.62183 13.2292,13.86598"
       id="path6924-8-7-6-52"
       inkscape:connector-type="polyline"
       inkscape:connector-curvature="0"
       inkscape:highlight-color="#070707"
       sodipodi:nodetypes="ccc" /><path
       style="display:inline;fill:none;fill-rule:evenodd;stroke:#000000;stroke-width:3.658;stroke-linecap:round;stroke-linejoin:round;stroke-dasharray:none;stroke-opacity:1"
       d="M 59.0021,256.73399 45.7729,270.59997"
       id="path6924-8-7-6-52-6"
       inkscape:connector-type="polyline"
       inkscape:connector-curvature="0"
       inkscape:highlight-color="#070707"
       sodipodi:nodetypes="ccc" /><path
       style="display:inline;fill:none;fill-rule:evenodd;stroke:#000000;stroke-width:3.658;stroke-linecap:round;stroke-linejoin:round;stroke-dasharray:none;stroke-opacity:1"
       d="m 70.379146,266.86103 -7.93748,17.44344"
       id="path6924-8-7-6-5"
       inkscape:connector-type="polyline"
       inkscape:connector-curvature="0"
       inkscape:highlight-color="#070707"
       sodipodi:nodetypes="ccc" /><path
       style="display:inline;fill:none;fill-rule:evenodd;stroke:#000000;stroke-width:3.658;stroke-linecap:round;stroke-linejoin:round;stroke-dasharray:none;stroke-opacity:1"
       d="m 84.931253,271.10984 -2.64584,18.98096"
       id="path6924-8-7-9"
       inkscape:connector-type="polyline"
       inkscape:connector-curvature="0"
       inkscape:highlight-color="#070707"
       sodipodi:nodetypes="ccc" /><path
       style="fill:none;fill-rule:evenodd;stroke:#000000;stroke-width:0.264583px;stroke-linecap:butt;stroke-linejoin:miter;stroke-opacity:1"
       d="m 101.95242,47.643426 v 0"
       id="path6926"
       inkscape:connector-type="polyline"
       inkscape:connector-curvature="0" /><path
       style="fill:none;fill-rule:evenodd;stroke:#000000;stroke-width:0.264583px;stroke-linecap:butt;stroke-linejoin:miter;stroke-opacity:1"
       d="m 101.95242,109.16876 v 0.1323"
       id="path6928"
       inkscape:connector-type="polyline"
       inkscape:connector-curvature="0"
       inkscape:connection-start="#path4298" /><path
       style="fill:none;stroke-width:3.658;stroke-linecap:round;stroke-linejoin:round"
       d="m 47.625131,141.42969 c -26.458465,31.75019 -26.458465,95.25019 5.29e-4,127.00006 26.458995,31.74986 79.3746,31.74986 105.8328,-6.4e-4 26.4582,-31.7505 26.4582,-95.24923 -5.3e-4,-126.99942 -26.45873,-31.75018 -79.374333,-31.75018 -105.832799,0 z"
       id="path1278"
       inkscape:path-effect="#path-effect1280"
       inkscape:original-d="m 21.166666,109.67951 c 2.65e-4,63.50037 2.65e-4,127.00037 0,190.5001 52.917989,2.7e-4 105.833594,2.7e-4 158.749994,0 2.7e-4,-63.501 2.7e-4,-126.99973 0,-190.5001 -52.91746,2.7e-4 -105.833063,2.7e-4 -158.749994,0 z" /><path
       style="fill:none;stroke-width:3.658;stroke-linecap:round;stroke-linejoin:round"
       d="m 52.034853,142.31164 c 25.576521,-32.63213 76.729297,-32.63213 102.305547,6.5e-4 25.57626,32.63278 25.57626,97.89537 -5e-4,130.52718 -25.57677,32.63181 -76.728526,32.63181 -102.305046,-6.6e-4 -25.576521,-32.63246 -25.576521,-97.89504 -1e-6,-130.52717 z"
       id="path2008"
       inkscape:path-effect="#path-effect2010"
       inkscape:original-d="m 26.458333,109.67951 c 51.153041,2.7e-4 102.305817,2.7e-4 153.458327,0 2.7e-4,65.26556 2.7e-4,130.52815 0,195.79177 -51.15353,2.6e-4 -102.305286,2.6e-4 -153.458327,0 2.65e-4,-65.26493 2.65e-4,-130.52751 0,-195.79177 z" /></g></svg>
